<svg xmlns="http://www.w3.org/2000/svg" width="190.001" height="39.309" viewBox="0 0 190.001 39.309">
  <g id="LOGO" transform="translate(-985.394 -272.087)">
    <path id="パス_4" data-name="パス 4" d="M1008.008,319.99l0,10.4a3.721,3.721,0,0,1-3.033,3.28h0l-.05.009-.064.01-.024,0-.051.007c-.059.007-.118.013-.177.017h0c-.093.007-.187.011-.282.011s-.186,0-.278-.011h-.008l-.083-.007-.067-.007h-.01l-.062-.008a3.685,3.685,0,0,1-3.149-3.282v-.023q0-.045-.007-.09v-.017c0-.016,0-.033,0-.05s0-.046,0-.07v-.022c0-.026,0-.052,0-.078V319.99H996.68v10.071c0,.026,0,.053,0,.078v.022c0,.023,0,.046,0,.07s0,.033,0,.05v.017a3.674,3.674,0,0,1-3.157,3.4l-.062.008h-.01l-.067.007-.083.007h-.007c-.092.007-.184.011-.278.011s-.189,0-.282-.011h0c-.059,0-.118-.01-.177-.017l-.051-.007-.024,0-.065-.01-.05-.009h0a3.67,3.67,0,0,1-2.131-1.217l-.05-.059,0,0-.033-.041-.03-.039,0-.005a3.68,3.68,0,0,1-.421-.687l0-.007h0l0,0a3.662,3.662,0,0,1-.343-1.547h0V318.542h0v-3.1h-3.943V330.42a7.626,7.626,0,0,0,12.007,5.828q.2-.14.389-.294.093-.075.184-.153l.019-.017.058-.05.054-.048.038-.034.1-.09.016-.015.095-.092.006-.005q.1-.1.205-.21l.007-.008.1-.107q.177.2.367.379a7.7,7.7,0,0,0,.9.741,7.626,7.626,0,0,0,12.007-5.828V319.99Z" transform="translate(0 -26.244)" fill="#ffa91f"/>
    <path id="パス_5" data-name="パス 5" d="M1035.788,291.184v3.1h3.943V279.306a7.626,7.626,0,0,0-12.007-5.828c-.133.094-.263.192-.389.294-.062.05-.124.1-.184.153l-.019.017-.057.05-.054.048-.037.034-.1.09-.016.015-.1.092-.006.005q-.1.1-.205.21l-.007.008-.1.107c-.118-.13-.24-.257-.367-.379a7.689,7.689,0,0,0-.9-.741,7.626,7.626,0,0,0-12.007,5.828v10.43h3.932v-10.4a3.721,3.721,0,0,1,3.033-3.28h0l.05-.009.064-.01.024,0,.051-.007c.058-.007.117-.013.177-.017h0c.093-.007.187-.011.282-.011s.186,0,.278.011h.008l.083.007.067.007h.01l.062.008a3.686,3.686,0,0,1,3.149,3.282v.023c0,.03.005.06.007.09v.017c0,.016,0,.033,0,.05s0,.046,0,.07v.021c0,.026,0,.052,0,.079v10.071h3.974V279.666c0-.026,0-.053,0-.079v-.021c0-.024,0-.047,0-.07s0-.033,0-.05v-.017a3.673,3.673,0,0,1,3.157-3.4l.062-.008h.01l.067-.007.083-.007h.008q.137-.011.277-.011c.1,0,.189,0,.282.011h0c.059,0,.118.01.177.017l.051.007.024,0,.065.01.05.009h0a3.669,3.669,0,0,1,2.131,1.217l.05.059,0,0,.032.041.031.039,0,.005a3.672,3.672,0,0,1,.421.687l0,.007h0l0,0a3.656,3.656,0,0,1,.343,1.547h0v11.517Z" transform="translate(-16.478)" fill="#222"/>
    <g id="グループ_25" data-name="グループ 25" transform="translate(1034.918 276.541)">
      <path id="パス_6" data-name="パス 6" d="M1130.857,305.835l3.752,14.662h.077l3.714-14.662h4.642l-5.338,18.531h-6.228l-3.172-12.882h-.077l-3.095,12.882h-6l-5.686-18.531h4.99l3.791,14.662h.077l3.791-14.662Z" transform="translate(-1113.448 -296.55)" fill="#222"/>
      <path id="パス_7" data-name="パス 7" d="M1190.535,305.718a26.3,26.3,0,0,1,6.654-.928c4.448,0,7.311,1.315,7.311,6.693v7.312c0,1.354.271,1.741,1.045,1.741a5.135,5.135,0,0,0,1.315-.193l-.155,3.327a7.963,7.963,0,0,1-2.9.464,3.165,3.165,0,0,1-3.366-2.631c-1.083,1.625-3.134,2.669-5.958,2.669-4.178,0-5.957-2.321-5.957-5.416,0-4.333,3.211-5.649,7.583-5.919l3.752-.233v-1.315c0-2.553-1.509-2.825-3.559-2.825a23.632,23.632,0,0,0-5.841.967h-.155Zm9.362,11.838v-2.05l-2.941.116c-2.359.116-3.675.967-3.675,2.785,0,1.625.851,2.4,2.785,2.4C1198.465,320.806,1199.9,319.413,1199.9,317.556Z" transform="translate(-1157.96 -295.931)" fill="#222"/>
      <path id="パス_8" data-name="パス 8" d="M1246.136,283.028v17.1h.077l6.809-7.815h5.3l-7.2,7.969,7.776,10.561h-5.377l-7.312-10.1h-.077v10.1h-4.681V283.028Z" transform="translate(-1189.343 -283.028)" fill="#222"/>
      <path id="パス_9" data-name="パス 9" d="M1288.591,317.789V305.835h4.681v11.219c0,2.631.851,3.907,3.25,3.907,2.9,0,3.984-1.819,3.984-3.946v-11.18h4.681v18.531h-4.217l-.193-2.244h-.078c-.851,1.47-2.631,2.669-5.609,2.669C1290.564,324.791,1288.591,322.354,1288.591,317.789Z" transform="translate(-1217.29 -296.55)" fill="#222"/>
      <path id="パス_10" data-name="パス 10" d="M1366.13,311.908v11.838h-4.681V312.488c0-2.631-.967-3.869-3.095-3.869a3.631,3.631,0,0,0-3.869,3.869v11.258H1349.8V312.488c0-2.631-.928-3.869-3.056-3.869a3.63,3.63,0,0,0-3.869,3.869v11.258H1338.2V305.215h4.256l.155,2.244.077.039a5.9,5.9,0,0,1,5.416-2.708c2.708,0,4.565,1.006,5.532,2.979a7.276,7.276,0,0,1,6.112-2.979C1363.964,304.79,1366.13,307.266,1366.13,311.908Z" transform="translate(-1246.701 -295.931)" fill="#222"/>
      <path id="パス_11" data-name="パス 11" d="M1412.611,314.655c0-6,3.443-9.865,9.749-9.865,6.5,0,8.936,4.217,8.936,9.362,0,5.88-3.017,10.02-9.517,10.02C1415.125,324.172,1412.611,319.955,1412.611,314.655Zm13.811-.193c0-3.637-1.16-5.919-4.371-5.919-2.979,0-4.6,1.973-4.6,5.957,0,4.062,1.547,6,4.487,6C1424.952,320.5,1426.422,318.369,1426.422,314.462Z" transform="translate(-1290.821 -295.931)" fill="#222"/>
    </g>
  </g>
</svg>