<svg xmlns="http://www.w3.org/2000/svg" width="367.938" height="76.122" viewBox="0 0 367.938 76.122">
  <g id="logo" transform="translate(-968.787 -746.036)">
    <path id="パス_1235" data-name="パス 1235" d="M1011.987,798.079l0,19.865a7.108,7.108,0,0,1-5.795,6.266h0l-.1.016-.123.02-.046.006-.1.013c-.112.014-.225.026-.338.034h0q-.266.021-.538.021t-.53-.02h-.015l-.159-.015-.128-.014-.019,0-.119-.016a7.041,7.041,0,0,1-6.016-6.269v-.044c-.005-.058-.01-.115-.013-.173l0-.031c0-.032,0-.063-.005-.095s0-.089,0-.133v-.041c0-.05,0-.1,0-.149V798.079h-7.592v19.239c0,.05,0,.1,0,.149v.041c0,.044,0,.089-.005.133s0,.063-.005.095l0,.031a7.015,7.015,0,0,1-6.03,6.486l-.118.016-.02,0-.128.014-.159.015h-.014c-.175.013-.352.02-.53.02s-.361-.007-.539-.021h0c-.114-.009-.226-.02-.338-.034l-.1-.013-.046-.006-.124-.02-.095-.016h0a7,7,0,0,1-4.071-2.325q-.049-.055-.1-.112l-.005-.007-.062-.078-.058-.074-.009-.011a7.077,7.077,0,0,1-.8-1.312l-.006-.012v0h0l0-.007a7,7,0,0,1-.656-2.955h0v-22h0V789.39h-7.533v28.615a14.568,14.568,0,0,0,22.937,11.132q.382-.269.744-.56c.119-.1.237-.193.352-.292l.037-.031.11-.1.1-.092.072-.065c.062-.056.124-.113.185-.17l.029-.028.181-.175.011-.011q.2-.2.392-.4l.014-.016c.064-.068.127-.135.189-.2q.337.373.7.723a14.718,14.718,0,0,0,1.716,1.416,14.568,14.568,0,0,0,22.937-11.132V798.079Z" transform="translate(0 -9.638)" fill="#ffa91f"/>
    <path id="パス_1236" data-name="パス 1236" d="M1039.756,782.517v5.925h7.533V759.826a14.569,14.569,0,0,0-22.937-11.132q-.38.269-.743.56c-.119.1-.237.193-.352.292l-.037.031-.11.1-.1.092-.071.064q-.093.084-.184.17l-.029.029c-.062.058-.122.116-.182.174l-.011.011q-.2.2-.392.4l-.014.015q-.1.1-.189.2-.337-.373-.7-.723a14.626,14.626,0,0,0-1.716-1.416,14.569,14.569,0,0,0-22.937,11.132v19.926h7.511l0-19.865a7.108,7.108,0,0,1,5.794-6.266h0l.095-.016.124-.02.046-.006.1-.013c.111-.014.224-.026.338-.034h0c.178-.014.358-.021.538-.021s.356.007.53.02l.015,0,.159.014.127.014.019,0,.119.016a7.04,7.04,0,0,1,6.016,6.27v.043c.005.057.01.115.013.173l0,.031c0,.032,0,.063.005.095s0,.089.005.133v.041c0,.05,0,.1,0,.149v19.239h7.591V760.513q0-.075,0-.149l0-.041c0-.044,0-.089,0-.133s0-.063.005-.095l0-.031a7.016,7.016,0,0,1,6.03-6.486l.119-.016.019,0,.128-.014.159-.014.015,0q.263-.02.53-.02c.182,0,.361.007.539.021h0c.114.008.226.02.339.034l.1.013.046.006.124.02.095.016h0a7,7,0,0,1,4.071,2.325c.033.037.065.075.1.112l.005.007c.022.026.041.051.062.078l.059.074.008.011a6.991,6.991,0,0,1,.8,1.312l.006.013v0h0l0,.006a6.983,6.983,0,0,1,.655,2.956h0v22Z" transform="translate(-6.178)" fill="#f9f9f9"/>
    <g id="グループ_226" data-name="グループ 226" transform="translate(1068.374 754.545)">
      <path id="パス_1237" data-name="パス 1237" d="M1130.1,779.783l7.168,28.009h.148l7.095-28.009h8.868l-10.2,35.4h-11.9l-6.06-24.609h-.148l-5.912,24.609H1107.7l-10.863-35.4h9.533l7.242,28.009h.149l7.242-28.009Z" transform="translate(-1096.841 -762.047)" fill="#f9f9f9"/>
      <path id="パス_1238" data-name="パス 1238" d="M1175.759,780.512a50.208,50.208,0,0,1,12.712-1.774c8.5,0,13.966,2.513,13.966,12.786v13.967c0,2.587.518,3.325,2,3.325a9.846,9.846,0,0,0,2.512-.369l-.3,6.355a15.229,15.229,0,0,1-5.542.887c-3.473,0-5.838-1.921-6.429-5.025-2.069,3.1-5.987,5.1-11.381,5.1-7.981,0-11.381-4.434-11.381-10.346,0-8.277,6.134-10.79,14.485-11.308l7.168-.443v-2.513c0-4.878-2.883-5.395-6.8-5.395a45.142,45.142,0,0,0-11.158,1.848h-.3Zm17.884,22.615V799.21l-5.617.221c-4.507.222-7.02,1.848-7.02,5.321,0,3.1,1.626,4.582,5.321,4.582C1190.909,809.334,1193.643,806.674,1193.643,803.126Z" transform="translate(-1113.53 -761.815)" fill="#f9f9f9"/>
      <path id="パス_1239" data-name="パス 1239" d="M1233.791,756.977v32.665h.148l13.007-14.929h10.124l-13.745,15.225,14.854,20.175h-10.273l-13.968-19.288h-.148v19.288h-8.943V756.977Z" transform="translate(-1125.298 -756.977)" fill="#f9f9f9"/>
      <path id="パス_1240" data-name="パス 1240" d="M1271.984,802.619V779.783h8.943v21.432c0,5.025,1.625,7.464,6.208,7.464,5.543,0,7.611-3.474,7.611-7.538V779.783h8.943v35.4h-8.055l-.37-4.286h-.147c-1.626,2.808-5.026,5.1-10.716,5.1C1275.754,816,1271.984,811.34,1271.984,802.619Z" transform="translate(-1135.777 -762.047)" fill="#f9f9f9"/>
      <path id="パス_1241" data-name="パス 1241" d="M1374.949,792.337V814.95h-8.943V793.445c0-5.025-1.848-7.39-5.912-7.39-4.951,0-7.39,3.4-7.39,7.39V814.95h-8.942V793.445c0-5.025-1.774-7.39-5.838-7.39-4.952,0-7.39,3.4-7.39,7.39V814.95h-8.943v-35.4h8.13l.3,4.287.147.073c1.7-2.882,5.026-5.173,10.346-5.173,5.174,0,8.721,1.922,10.569,5.691a13.9,13.9,0,0,1,11.676-5.691C1370.811,778.738,1374.949,783.468,1374.949,792.337Z" transform="translate(-1146.804 -761.815)" fill="#f9f9f9"/>
      <path id="パス_1242" data-name="パス 1242" d="M1396,797.583c0-11.455,6.577-18.845,18.623-18.845,12.416,0,17.071,8.056,17.071,17.885,0,11.233-5.764,19.141-18.18,19.141C1400.807,815.764,1396,807.708,1396,797.583Zm26.382-.369c0-6.946-2.216-11.306-8.35-11.306-5.691,0-8.795,3.769-8.795,11.38,0,7.76,2.956,11.455,8.573,11.455C1419.578,808.743,1422.386,804.678,1422.386,797.214Z" transform="translate(-1163.347 -761.815)" fill="#f9f9f9"/>
    </g>
  </g>
</svg>
